# xmcd
#
# Track frame offsets:
#	150
#	18224
#	35050
#	45902
#	64034
#	84321
#	102182
#	118451
#	133123
#	146876
#	165268
#	180588
#	196437
#	212506
#	226643
#	240885
#	260730
#	275882
#
# Disc length: 3914 seconds
#
# Revision: 0
# Processed by: cddbd v1.5.2PL0 Copyright (c) Steve Scherf et al.
# Submitted via: EasyCDDAExtractor 16.0.9.1
#
DISCID=f70f4812
DTITLE=Nu Urban Traxx Volume 214 US
DYEAR=2015
DGENRE=blues
TTITLE0=Tink\n - Million\n
TTITLE1=Mark Ronson ft. Mystikal\n - Feel Right\n
TTITLE2=T-Wayne\n - Nasty Freestyle\n
TTITLE3=Tamar Braxton\n - If I Don't Have To\n
TTITLE4=Juicy J ft. Wiz Khalifa and R. City\n - For Everybody\n
TTITLE5=Ciara\n - Dance Like We're Making Love\n
TTITLE6=Natalie La Rose ft. Fetty Wap\n - All Around The World\n
TTITLE7=Casey Veggies ft. Dej Loaf\n - Tied Up\n
TTITLE8=Drake\n - Energy\n
TTITLE9=D'Angelo And The Vanguard\n - Betray My Heart\n
TTITLE10=Jill Scott\n - Fools Gold\n
TTITLE11=August Alsina\n - Hip Hop\n
TTITLE12=Sage The Gemini ft. Trey Songz\n - Guantanamera\n
TTITLE13=Chinx\n - On Your Body\n
TTITLE14=Carnage ft. ILoveMcKonnen\n - I Like Tuh\n
TTITLE15=History In The Making\n - Walk Away\n
TTITLE16=Bryson Tiller\n - Don't\n
TTITLE17=Demetria McKinney\n - Trade It All\n
EXTD=
EXTT0=
EXTT1=
EXTT2=
EXTT3=
EXTT4=
EXTT5=
EXTT6=
EXTT7=
EXTT8=
EXTT9=
EXTT10=
EXTT11=
EXTT12=
EXTT13=
EXTT14=
EXTT15=
EXTT16=
EXTT17=
PLAYORDER=
